<svg width="24" height="24" viewBox="0 0 24 24" fill="none" xmlns="http://www.w3.org/2000/svg">
<g clip-path="url(#clip0_107_2965)">
<path d="M15.6227 22C15.513 22.0006 15.4043 21.9796 15.3028 21.9381C15.2013 21.8967 15.1089 21.8356 15.0311 21.7584L8.22391 14.9512C7.83595 14.5642 7.52814 14.1045 7.31812 13.5984C7.10811 13.0922 7 12.5497 7 12.0017C7 11.4537 7.10811 10.9111 7.31812 10.405C7.52814 9.8989 7.83595 9.43918 8.22391 9.0522L15.0311 2.24503C15.1088 2.16735 15.201 2.10573 15.3025 2.06368C15.404 2.02164 15.5128 2 15.6227 2C15.7325 2 15.8413 2.02164 15.9428 2.06368C16.0443 2.10573 16.1365 2.16735 16.2142 2.24503C16.2919 2.32272 16.3535 2.41495 16.3956 2.51645C16.4376 2.61795 16.4593 2.72674 16.4593 2.8366C16.4593 2.94646 16.4376 3.05525 16.3956 3.15675C16.3535 3.25825 16.2919 3.35048 16.2142 3.42817L9.40704 10.2353C8.93895 10.704 8.67603 11.3393 8.67603 12.0017C8.67603 12.6641 8.93895 13.2994 9.40704 13.7681L16.2142 20.5752C16.2923 20.6527 16.3543 20.7448 16.3966 20.8464C16.4389 20.9479 16.4607 21.0568 16.4607 21.1668C16.4607 21.2768 16.4389 21.3857 16.3966 21.4872C16.3543 21.5888 16.2923 21.6809 16.2142 21.7584C16.1364 21.8356 16.044 21.8967 15.9425 21.9381C15.841 21.9796 15.7323 22.0006 15.6227 22Z" fill="black" style="fill:black;fill-opacity:1;"/>
</g>
<defs>
<clipPath id="clip0_107_2965">
<rect width="24" height="24" fill="white" style="fill:white;fill-opacity:1;"/>
</clipPath>
</defs>
</svg>
